<?xml version="1.0" encoding="UTF-8"?>
<svg id="Camada_3" data-name="Camada 3" xmlns="http://www.w3.org/2000/svg" viewBox="0 0 337.95 52.07">
  <defs>
    <style>
      .cls-1 {
        fill: #feb202;
      }

      .cls-2 {
        fill: #232323;
      }
    </style>
  </defs>
  <g id="Camada_1" data-name="Camada 1">
    <g>
      <g>
        <path class="cls-2" d="M243,52.04c-.55,0-1.03-.1-1.44-.3-.41-.2-.74-.47-.99-.82-.26-.34-.45-.74-.57-1.2-.13-.45-.19-.93-.19-1.44s.06-.99.19-1.44c.13-.45.32-.85.57-1.2.26-.35.59-.62.99-.82.41-.2.89-.3,1.44-.3s1,.09,1.39.28c.39.19.7.44.95.77.25.33.43.71.55,1.13h-.93c-.15-.43-.38-.77-.71-1.01-.32-.24-.74-.36-1.25-.36-.41,0-.75.08-1.04.23-.29.15-.52.36-.71.63-.19.27-.32.58-.41.94-.08.36-.13.74-.13,1.14s.04.79.13,1.14c.08.36.22.67.41.94.19.27.42.48.71.63.29.15.63.23,1.04.23.51,0,.93-.12,1.25-.36.32-.24.56-.58.71-1.01h.93c-.12.43-.31.8-.55,1.13-.25.33-.56.59-.95.77-.39.19-.85.28-1.39.28Z"/>
        <path class="cls-2" d="M255.09,51.94l2.79-7.31h.95l2.79,7.31h-.95l-.79-2.13h-3.04l-.79,2.13h-.95ZM257.13,49h2.46l-1.21-3.27h-.04l-1.21,3.27Z"/>
        <path class="cls-2" d="M271.43,51.94v-7.31h2.33c.61,0,1.1.1,1.47.31.37.21.64.49.81.84.17.35.25.75.25,1.19s-.08.84-.25,1.19c-.17.35-.44.63-.81.84-.37.21-.86.31-1.47.31h-1.42v2.64h-.91ZM272.34,48.49h1.42c.56,0,.97-.11,1.23-.35.26-.23.39-.62.39-1.18s-.13-.96-.39-1.18c-.26-.23-.67-.34-1.23-.34h-1.42v3.04Z"/>
        <path class="cls-2" d="M288.92,51.94v-7.31h.91v7.31h-.91Z"/>
        <path class="cls-2" d="M304.42,51.94v-6.49h-2.33v-.81h5.58v.81h-2.33v6.49h-.91Z"/>
        <path class="cls-2" d="M317.12,51.94l2.79-7.31h.95l2.79,7.31h-.95l-.79-2.13h-3.04l-.79,2.13h-.95ZM319.16,49h2.46l-1.21-3.27h-.04l-1.21,3.27Z"/>
        <path class="cls-2" d="M333.84,51.94v-7.31h.91v6.49h3.2v.81h-4.11Z"/>
      </g>
      <g>
        <path class="cls-2" d="M108.34,14.84h-8.66l-13.72,37.02h8.66l2.78-7.89c.85-2.49,1.71-4.97,2.56-7.46l4.08-11.54,4.08,11.54c.83,2.49,1.67,4.97,2.5,7.46l2.78,7.89h8.66l-13.72-37.02Z"/>
        <path class="cls-2" d="M131.76,14.84h8.6l6.26,27.33,7.57-15.06-1.25-4.52h7.79l7.57,19.58,6.21-27.33h8.6l-9.91,37.02h-8.66l-6.53-14.3-7.68,14.3h-8.66l-9.91-37.02Z"/>
        <path class="cls-2" d="M215.46,14.84h-8.66l-13.72,37.02h8.66l2.78-7.89c.85-2.49,1.71-4.97,2.56-7.46l4.08-11.54,4.08,11.54c.83,2.49,1.67,4.97,2.5,7.46l2.78,7.89h8.66l-13.72-37.02Z"/>
        <circle class="cls-2" cx="184.37" cy="49.27" r="2.68"/>
        <circle class="cls-2" cx="130.46" cy="49.27" r="2.68"/>
      </g>
      <g>
        <path class="cls-1" d="M57.76,52.07l4.09-35.27c.11-.99-.23-1.98-.93-2.68L46.91.1l-4.05,35.16c-.12,1.04.24,2.08.98,2.82l13.93,13.98Z"/>
        <path class="cls-1" d="M14.89,37l2.32-19.88c.15-1.26-.29-2.53-1.19-3.42L2.31,0,.03,19.77c-.15,1.31.3,2.62,1.24,3.56l13.62,13.67Z"/>
        <path class="cls-1" d="M35.38,52.07l4.09-35.27c.11-.99-.23-1.98-.93-2.68L24.53.1l-4.05,35.16c-.12,1.04.24,2.08.98,2.82l13.93,13.98Z"/>
        <circle class="cls-1" cx="66.37" cy="49.22" r="2.67"/>
      </g>
    </g>
  </g>
</svg>